<svg
xmlns="http://www.w3.org/2000/svg"
viewBox="0 0 89.94 75.23"
style="transform: scale(.8);"
>
<defs>
  <style>
    .ugto-1 {
      fill: #231f20;
    }
  </style>
</defs>
<title>UNIVERSIDAD GTO</title>
<g id="Layer_2" data-name="Layer 2">
  <g id="UniGTO">
    <path
      class="ugto-1"
      d="M6.21.15V4.58c0,2.14-1.13,3.29-3.11,3.29S0,6.72,0,4.58V.15H.89V4.59C.89,6.23,1.64,7,3.1,7s2.22-.81,2.22-2.45V.15Z"
    />
    <path
      class="ugto-1"
      d="M14.08.15V7.71h-.83L9.89,3.19C9.24,2.29,8.77,1.6,8.76,1.6h0s0,.94,0,2.15v4H7.88V.15h.83l3.36,4.51c.57.77,1.13,1.56,1.14,1.56h0s0-1,0-2.09v-4Z"
    />
    <rect
      class="ugto-1"
      x="16.09"
      y="0.15"
      width="0.89"
      height="7.56"
    />
    <path
      class="ugto-1"
      d="M25.35.15,22.12,7.71h-.89L18,.15h1l2.28,5.41c.21.54.42,1.16.43,1.16h0s.23-.62.43-1.16L24.4.15Z"
    />
    <polygon
      class="ugto-1"
      points="31.5 6.88 31.5 7.71 26.39 7.71 26.39 0.15 31.43 0.15 31.43 0.98 27.27 0.98 27.27 3.31 30.61 3.31 30.61 4.1 27.27 4.1 27.27 6.88 31.5 6.88"
    />
    <path
      class="ugto-1"
      d="M37.58,7.71,35.87,4.88h-1.8V7.71h-.89V.15h2.3c1.77,0,2.83.93,2.83,2.39a2.15,2.15,0,0,1-1.58,2.17l1.84,3Zm-2-3.61c1.21,0,1.83-.66,1.83-1.56S36.72,1,35.57,1h-1.5V4.1Z"
    />
    <path
      class="ugto-1"
      d="M44,2.25A1.81,1.81,0,0,0,42.15.78c-1,0-1.69.47-1.69,1.23s1,1.09,2,1.39S45,4.19,45,5.66c0,1.27-1.1,2.2-2.76,2.2a2.72,2.72,0,0,1-2.88-2.22l.85-.23a1.93,1.93,0,0,0,2.06,1.65c1.13,0,1.81-.59,1.81-1.38,0-1.1-1.31-1.33-2.38-1.66-.86-.27-2.14-.66-2.14-2s1.11-2,2.63-2a2.62,2.62,0,0,1,2.7,2Z"
    />
    <rect
      class="ugto-1"
      x="46.42"
      y="0.15"
      width="0.89"
      height="7.56"
    />
    <path
      class="ugto-1"
      d="M52.5.15A3.77,3.77,0,0,1,56.41,4a3.69,3.69,0,0,1-3.85,3.74H49.31V.15Zm.06,6.73A2.83,2.83,0,0,0,55.5,4a2.9,2.9,0,0,0-3-3H50.2v5.9Z"
    />
    <path
      class="ugto-1"
      d="M62.22,5.73H58.43l-.85,2h-.95L59.92.15h.81L64,7.71h-1ZM61.88,5l-1.2-2.81c-.16-.39-.34-.92-.35-.92h0s-.2.53-.36.92L58.76,5Z"
    />
    <path
      class="ugto-1"
      d="M68.27.15A3.77,3.77,0,0,1,72.18,4a3.69,3.69,0,0,1-3.84,3.74H65.09V.15Zm.07,6.73A2.83,2.83,0,0,0,71.28,4a2.9,2.9,0,0,0-3-3H66v5.9Z"
    />
    <path
      class="ugto-1"
      d="M79.55.15A3.76,3.76,0,0,1,83.45,4a3.68,3.68,0,0,1-3.84,3.74H76.36V.15Zm.06,6.73A2.83,2.83,0,0,0,82.55,4a2.9,2.9,0,0,0-3-3h-2.3v5.9Z"
    />
    <polygon
      class="ugto-1"
      points="89.94 6.88 89.94 7.71 84.84 7.71 84.84 0.15 89.88 0.15 89.88 0.98 85.72 0.98 85.72 3.31 89.06 3.31 89.06 4.1 85.72 4.1 85.72 6.88 89.94 6.88"
    />
    <path
      class="ugto-1"
      d="M15.92,17.9a3.6,3.6,0,0,1-2.77,1.28,3.85,3.85,0,0,1-3.92-3.93,3.94,3.94,0,0,1,7.36-1.95l-.9.23a3,3,0,0,0-2.54-1.35,2.92,2.92,0,0,0-3,3.07,3,3,0,0,0,3,3.06,3,3,0,0,0,2.75-1.52v-.94H13.62v-.73h3.07V19h-.77c0-.89,0-1.13,0-1.14Z"
    />
    <path
      class="ugto-1"
      d="M24.13,11.47v4.42c0,2.14-1.13,3.3-3.11,3.3s-3.1-1.16-3.1-3.3V11.47h.89v4.44c0,1.64.76,2.45,2.21,2.45s2.23-.81,2.23-2.45V11.47Z"
    />
    <path
      class="ugto-1"
      d="M30.2,17.05H26.41l-.84,2h-.95l3.28-7.56h.81L32,19H31Zm-.33-.79-1.2-2.81c-.16-.39-.35-.91-.36-.91h0s-.19.52-.36.91l-1.19,2.81Z"
    />
    <path
      class="ugto-1"
      d="M39.27,11.47V19h-.83L35.08,14.5c-.65-.9-1.12-1.59-1.13-1.59h0s0,.94,0,2.15v4h-.89V11.47h.83L37.26,16c.58.77,1.13,1.56,1.14,1.56h0s0-1,0-2.1v-4Z"
    />
    <path
      class="ugto-1"
      d="M45.93,17.05H42.14l-.84,2h-.95l3.28-7.56h.81L47.73,19h-.95Zm-.33-.79-1.2-2.81c-.16-.39-.35-.91-.36-.91h0s-.19.52-.35.91l-1.2,2.81Z"
    />
    <path
      class="ugto-1"
      d="M54,11.47v4.42a3,3,0,0,1-3.17,3.3,3.05,3.05,0,0,1-3-2l.88-.23a2.11,2.11,0,0,0,2.08,1.36A2.14,2.14,0,0,0,53.09,16V11.47Z"
    />
    <path
      class="ugto-1"
      d="M61.78,11.47v4.42c0,2.14-1.13,3.3-3.11,3.3s-3.09-1.16-3.09-3.3V11.47h.88v4.44c0,1.64.76,2.45,2.21,2.45s2.23-.81,2.23-2.45V11.47Z"
    />
    <path
      class="ugto-1"
      d="M67.85,17.05H64.06l-.84,2h-.95l3.28-7.56h.81L69.64,19h-1Zm-.33-.79-1.2-2.81c-.16-.39-.35-.91-.36-.91h0s-.19.52-.35.91l-1.2,2.81Z"
    />
    <polygon
      class="ugto-1"
      points="75.06 11.47 75.06 12.3 72.53 12.3 72.53 19.03 71.65 19.03 71.65 12.3 69.13 12.3 69.13 11.47 75.06 11.47"
    />
    <path
      class="ugto-1"
      d="M79.37,11.32a3.93,3.93,0,1,1-3.92,3.93,3.86,3.86,0,0,1,3.92-3.93Zm0,7a2.94,2.94,0,0,0,3-3.06,3,3,0,1,0-6,0,2.93,2.93,0,0,0,3,3.06Z"
    />
    <path
      class="ugto-1"
      d="M56.18,47.56H59a.81.81,0,0,0,.48-.15.94.94,0,0,0,.3-.4,1.42,1.42,0,0,0,.1-.55V46.3a1.19,1.19,0,0,0-.13-.48.64.64,0,0,0-.33-.27,1.53,1.53,0,0,0-.58-.09H56.65l-.25,0a.26.26,0,0,1-.14-.11.46.46,0,0,1-.07-.24V45h-.11v1h.11V46a.58.58,0,0,1,.06-.23.28.28,0,0,1,.14-.1l.26,0H59q.75,0,.75.69a.59.59,0,0,1-.18.42.5.5,0,0,1-.39.16h-3v-.19h-.12v1h.12Z"
    />
    <path
      class="ugto-1"
      d="M38.94,25.56l.58-.1.23.67.21,0-.78-2.22-.2,0-.33,2.4.2,0Zm.12-1c0-.15,0-.31,0-.46,0,.12.08.28.14.47l.2.61L39,25.3Z"
    />
    <path
      class="ugto-1"
      d="M37.91,47.14c0-.15-.06-.19-.2-.13a.28.28,0,0,0,0,.18A.49.49,0,0,0,37.91,47.14Z"
    />
    <path
      class="ugto-1"
      d="M59.64,45a.39.39,0,0,1,.17.32v0h.1v-1h-.1v0a.26.26,0,0,1-.09.21.33.33,0,0,1-.23.1,1.05,1.05,0,0,1-.26-.05l-.52-.18V43.18l1.1-.44v.15h.1v-1h-.1v.12l-3.73,1.39v.25l3.15,1.08A1.64,1.64,0,0,1,59.64,45Zm-1.1-.58L57,43.88l1.59-.62Z"
    />
    <path
      class="ugto-1"
      d="M59.8,57.91l-3.73,1.47v.26l3.15,1.13a1.65,1.65,0,0,1,.42.23.39.39,0,0,1,.17.33v0h.1v-1h-.1v.05a.29.29,0,0,1-.09.22.38.38,0,0,1-.23.11,1.16,1.16,0,0,1-.26-.06l-.52-.19V59.1l1.1-.46v.16h.1v-1h-.1Zm-1.26,2.48L57,59.84l1.59-.66Z"
    />
    <path
      class="ugto-1"
      d="M40.66,26a.51.51,0,0,0,.35-.15.83.83,0,0,0,.19-.41,2.25,2.25,0,0,0,.06-.67,3.32,3.32,0,0,0-.08-.53,1.34,1.34,0,0,0-.16-.36.52.52,0,0,0-.22-.18.78.78,0,0,0-.28,0l-.49,0L40.15,26Zm-.13-2a.54.54,0,0,1,.24,0,.43.43,0,0,1,.19.25,1.54,1.54,0,0,1,.1.55,2,2,0,0,1,0,.57.56.56,0,0,1-.13.28.48.48,0,0,1-.28.1l-.29,0L40.23,24Z"
    />
    <path
      class="ugto-1"
      d="M56.3,63.88l.15-.11-.07-.08-.81.56.07.07.31-.14c1.87.92-.59,3.68-1.8,0-.24-.72.87-1.09.89-1l.12.13.07-.06-.41-.49-.08.07.1.14a1.31,1.31,0,0,0-1.1,1.34C54.18,67.71,58.33,66.61,56.3,63.88Z"
    />
    <path
      class="ugto-1"
      d="M38.23,46.27a.23.23,0,0,0,.08.17h.06C38.45,46.31,38.35,46.19,38.23,46.27Zm.09.11,0-.09h.06S38.33,46.35,38.32,46.38Z"
    />
    <path
      class="ugto-1"
      d="M41.34,44.61a.37.37,0,0,0-.4.28c0,.14,0,.43.16.5C41.55,45.33,41.74,44.88,41.34,44.61Zm-.12.19.14,0a.28.28,0,0,1-.15.37C41,45.09,41.07,44.9,41.22,44.8Z"
    />
    <path
      class="ugto-1"
      d="M37.78,44.53a.42.42,0,0,0,.29-.06.54.54,0,0,0-.29-.6c-.18,0-.33,0-.41.19S37.48,44.48,37.78,44.53Zm.07-.22s0,0-.16,0-.13-.11-.13-.24S37.85,44.15,37.85,44.31Z"
    />
    <path
      class="ugto-1"
      d="M43.31,25.82a.59.59,0,0,0,.5-.37A1.92,1.92,0,0,0,44,24.6a2.06,2.06,0,0,0-.1-.65.87.87,0,0,0-.25-.41.48.48,0,0,0-.34-.13.56.56,0,0,0-.48.33,1.92,1.92,0,0,0-.18.92,1.78,1.78,0,0,0,.19.8A.57.57,0,0,0,43.31,25.82Zm-.37-1.9a.43.43,0,0,1,.35-.25.32.32,0,0,1,.24.11.7.7,0,0,1,.17.28,2.19,2.19,0,0,1,.08.54,1.52,1.52,0,0,1-.13.71.4.4,0,0,1-.34.24c-.14,0-.25-.07-.35-.23a1.3,1.3,0,0,1-.14-.66A1.48,1.48,0,0,1,42.94,23.92Z"
    />
    <path
      class="ugto-1"
      d="M38.64,46.12a.34.34,0,0,0,.23-.08c.25-.48-.61-.57-.39,0Zm.09-.34s0,.1,0,.16,0,0-.09,0-.08-.08-.1-.14S38.66,45.78,38.73,45.78Z"
    />
    <path
      class="ugto-1"
      d="M55.45,62.16l2.6,1.43a.82.82,0,0,0,.49.11.72.72,0,0,0,.44-.18,1.23,1.23,0,0,0,.32-.42l.06-.13a1.08,1.08,0,0,0,.08-.47.65.65,0,0,0-.19-.39,2.14,2.14,0,0,0-.49-.37l-2-1.11a.76.76,0,0,1-.21-.15.26.26,0,0,1-.09-.16c0-.06,0,0,0-.14v0l-.1-.05-.34.61.1.06,0,0c.06-.08,0,0,.1-.05a.22.22,0,0,1,.16,0l.25.12,2.12,1.16c.45.25.58.57.4,1a.53.53,0,0,1-.76.2l-2.71-1.49.08-.18-.11,0-.41.87.1.06Z"
    />
    <path
      class="ugto-1"
      d="M37.87,26.48a.49.49,0,0,0,.33-.18.91.91,0,0,0,.18-.42,2.24,2.24,0,0,0,0-.69,2.19,2.19,0,0,0-.1-.51,1.08,1.08,0,0,0-.18-.34.46.46,0,0,0-.23-.17.92.92,0,0,0-.28,0l-.48.09.24,2.31Zm-.24-2a.47.47,0,0,1,.24,0,.44.44,0,0,1,.21.23,1.55,1.55,0,0,1,.12.54,2.16,2.16,0,0,1,0,.57.65.65,0,0,1-.12.29.53.53,0,0,1-.26.13l-.3.05-.18-1.76Z"
    />
    <path
      class="ugto-1"
      d="M51.05,51.33c-.28.09-.65.16-.38.48a.83.83,0,0,0,1.09.08,4.92,4.92,0,0,1-.15.56,3.75,3.75,0,0,0,.13.6c0,.05-.06.16,0,.2h.08a1.13,1.13,0,0,1,.1-.13,1.2,1.2,0,0,0,.72-.37l.18-.25a.9.9,0,0,0,.68.85h.22c.15-.11,0-.45,0-.6a1,1,0,0,0,1,0c.53-.45-1.22-1.21-1.45-1.34a1.6,1.6,0,0,0-.11-.25c.23-.08.38-.23.23-.47.08-.09.31,0,.31-.23-.1,0-.15.06-.22.1a.39.39,0,0,1-.38,0c0-.14,0-.27,0-.4H53a.54.54,0,0,0,0,.31l-.1,0a.3.3,0,0,0-.22.49,1.06,1.06,0,0,0-.19.06c-.51-.29-1.26-.82-1.87-.69C50.37,50.61,50.71,51.16,51.05,51.33Zm0-.19a2.49,2.49,0,0,1,1.12,0,7.06,7.06,0,0,1-.91.11C51.07,51.17,51.07,51.17,51,51.14Zm-.29.45a2.19,2.19,0,0,1,1.1-.24,1.84,1.84,0,0,0-.22.17l-.82.26A.22.22,0,0,1,50.74,51.59Zm.46.36c-.21-.06-.21-.06-.23-.09a4.37,4.37,0,0,0,.87-.34.65.65,0,0,1,.43-.24v0C51.89,51.57,51.65,51.88,51.2,52Zm1,.93a1.69,1.69,0,0,1-.45-.32.43.43,0,0,1,0-.22,1.31,1.31,0,0,0,.69.38A.57.57,0,0,1,52.2,52.88Zm.35-.39c-.06,0-1-.42-.61-.6a.85.85,0,0,0,.79.45C52.72,52.45,52.64,52.48,52.55,52.49Zm.25-.37c-.17,0-.73-.28-.73-.47a.39.39,0,0,1,.33-.09.66.66,0,0,0,.35.21,1,1,0,0,1,.07.34Zm1.33.63c-.13-.06-.24-.39-.28-.55.19,0,.67.27.72.44A2.36,2.36,0,0,1,54.13,52.75Zm.52-.24-.54-.36a2.21,2.21,0,0,1-.39-.14l-.44-.45C53.47,51.56,54.74,52.34,54.65,52.51Zm-.93-.3a2.23,2.23,0,0,1,.2.51c-.42-.22-.51-.62-.7-1C53.59,52.06,53.59,52.06,53.72,52.21Zm-.43,0c.07.16.44.77.31,1h-.15l-.17-.08A1.39,1.39,0,0,1,53.29,52.23ZM53.18,52a2.54,2.54,0,0,1-.1.55c0,.14,0,.27,0,.41A1.29,1.29,0,0,1,53,52.4c.06-.62.06-.62.08-.65h0ZM53,50.6a.69.69,0,0,1,.21.1v0c-.13.06,0,.15,0,.24H53c-.13-.06-.27-.13-.31-.28C52.85,50.71,52.92,50.72,53,50.6Zm.05,1a.79.79,0,0,1-.3.05.6.6,0,0,1-.22-.14C51.94,50.76,53.5,50.91,53,51.62Zm-2.32-1.25a2,2,0,0,1,.95.29c.65.33.65.33.65.35H52.2l-.54-.1a3.54,3.54,0,0,0-1-.47Zm.73.55a2.74,2.74,0,0,1-.57.12,1.26,1.26,0,0,1-.21-.47A1.91,1.91,0,0,1,51.44,50.92Z"
    />
    <path
      class="ugto-1"
      d="M38.34,45.46a.16.16,0,0,0,0-.12c-.1,0-.22,0-.14.17S38.29,45.5,38.34,45.46Zm-.07-.07,0,0s0,0-.09.05S38.23,45.41,38.27,45.39Z"
    />
    <path
      class="ugto-1"
      d="M50.83,55.43c0-.27-.23-.28-.47-.38a1,1,0,0,0,.55-1L50.77,54a4.62,4.62,0,0,0-1.78.62.65.65,0,0,0-.27-.08c.11-.23,0-.44-.24-.47a.75.75,0,0,0,.05-.36h-.06a2.86,2.86,0,0,1-.1.42c-.23.09-.32.06-.49-.14h0c0,.12.13.21.22.26l-.09,0c-.16.28.06.43.29.47,0,.06-.07.12-.1.19-.21.09-1.94.72-1.6,1.23a1.08,1.08,0,0,0,1.08.14c-.07.14-.22.5,0,.6a.82.82,0,0,0,.9-.84,1.25,1.25,0,0,0,.87.71l.13.15.1,0c0-.05,0-.13,0-.22a1.19,1.19,0,0,0,0-1l0,0A.86.86,0,0,0,50.83,55.43Zm-.18-.11v.11a.75.75,0,0,1-.29.16,1.26,1.26,0,0,1-.32-.17L49.71,55A3,3,0,0,1,50.65,55.32Zm-.71-.38-.7-.16c.22,0,.45-.07.67-.09l.55.13C50.38,54.94,50.07,54.94,49.94,54.94Zm.86-.69a2.75,2.75,0,0,1-.17.45h-.14a2.16,2.16,0,0,1-.47-.13A2.22,2.22,0,0,1,50.8,54.25Zm-.08-.16v0a4.06,4.06,0,0,0-.89.43l-.68.1A3.81,3.81,0,0,1,50.72,54.09Zm-1.66.74c0,.28-.22.4-.5.43-.35-.14-.36-.35-.09-.59S48.94,54.57,49.06,54.83Zm-.88-.24,0,0c.12-.1.13-.15.07-.29l.25-.09c0,.17,0,.16.16.21A.49.49,0,0,1,48.18,54.59Zm-1.09,1c.54-.28.54-.28,1-.51,0,0,0,0-.49.47a3,3,0,0,0-.4.14l-.57.35C46.67,55.8,46.9,55.72,47.09,55.6Zm.22.65h-.18l-.32-.11c0-.16.57-.37.74-.42C47.46,55.9,47.39,56.07,47.31,56.25Zm.16,0,.21-.46c.15-.16.29-.31.45-.46C48,55.6,47.81,56,47.47,56.2Zm.29.57c-.31-.12.29-1,.36-1.12,0,.09,0,.18,0,.28-.08.27-.21.54-.27.82Zm.24-.09a5.69,5.69,0,0,0,.27-.89c0-.12,0-.23,0-.34l.11-.18C48.37,55.72,48.52,56.46,48,56.68Zm.51-1c0-.48.25-.22.47-.47a.6.6,0,0,1,.34.11v0A1.71,1.71,0,0,1,48.51,55.68Zm.09.24a.91.91,0,0,0,.84-.35h0c.13.33-.51.48-.75.51C48.67,56.05,48.64,56,48.6,55.92Zm1,.34a1.36,1.36,0,0,1-.58.21c-.05,0-.12-.09-.14-.16a1.28,1.28,0,0,0,.43-.1c.23-.17.25-.22.29-.22ZM49.17,55a.08.08,0,0,1,0,0l.29.05c.25.2.42.49.7.65v0A2.13,2.13,0,0,1,49.17,55Z"
    />
    <polygon
      class="ugto-1"
      points="31.25 28.78 31.18 28.52 30.53 28.86 29.99 26.94 29.81 27.03 30.43 29.21 31.25 28.78"
    />
    <path
      class="ugto-1"
      d="M59.8,51.06l-3.73,1.39v.26l3.15,1.07a1.64,1.64,0,0,1,.42.21.39.39,0,0,1,.17.32v0h.1v-1h-.1v0a.29.29,0,0,1-.09.22.36.36,0,0,1-.23.09.73.73,0,0,1-.26-.05l-.52-.18V52.19l1.1-.44v.15h.1V51h-.1Zm-1.26,2.35L57,52.9l1.59-.63Z"
    />
    <path
      class="ugto-1"
      d="M56.39,55.09a.25.25,0,0,1-.14-.08s0,0-.06-.07v0h-.11v.55h.11v0c0-.2.28-.14.46-.14H58.3l-2.23,1.19v.91h.11c0-.05,0-.1,0-.12h3.44c.07,0,.12,0,.14.11v.06h.1v-.52h-.1v.05c0,.09,0,.09-.08.09H56.54l3.1-1.75h.27v-.15H56.65Z"
    />
    <polygon
      class="ugto-1"
      points="35.65 27.05 35.6 26.79 34.76 27.05 34.63 26.28 35.39 26.04 35.34 25.77 34.58 26.01 34.47 25.32 35.28 25.06 35.23 24.79 34.24 25.11 34.63 27.37 35.65 27.05"
    />
    <path
      class="ugto-1"
      d="M31.55,28.64l0-.74.56-.26.33.6.2-.1L31.5,26.19l-.19.09.05,2.44Zm.12-1.76.3.55-.45.21,0-.71c0-.16,0-.31,0-.46C31.51,26.58,31.58,26.72,31.67,26.88Z"
    />
    <path
      class="ugto-1"
      d="M36.11,26.89l-.13-1,.21-.05a.19.19,0,0,1,.15,0,.33.33,0,0,1,.12.1,2.14,2.14,0,0,1,.21.34l.25.43.23-.05-.32-.57a1.74,1.74,0,0,0-.19-.26.33.33,0,0,0-.13-.09.55.55,0,0,0,.26-.28.78.78,0,0,0,0-.44,1,1,0,0,0-.1-.34.4.4,0,0,0-.18-.17.5.5,0,0,0-.3,0l-.61.15.3,2.29Zm.17-2.15a.25.25,0,0,1,.24.05.42.42,0,0,1,.11.25.53.53,0,0,1,0,.22.35.35,0,0,1-.09.16.42.42,0,0,1-.19.09l-.4.1-.09-.76Z"
    />
    <path
      class="ugto-1"
      d="M33.89,27.65,34,25.2l-.19.07,0,1.77a2.54,2.54,0,0,0,0,.39c0-.11-.09-.22-.15-.34l-.67-1.5-.2.07,1,2.05Z"
    />
    <path
      class="ugto-1"
      d="M58.92,48.24H56.18v-.16h-.11V49h.11v-.14H59c1.48.54-.19,1.94-.77,1.23.39,1.59,2.64,0,1.38-1.68C59.49,48.27,59.22,48.24,58.92,48.24Z"
    />
    <polygon
      class="ugto-1"
      points="53.75 26.68 53.07 26.51 53.33 24.49 53.15 24.45 52.85 26.74 53.72 26.95 53.75 26.68"
    />
    <path
      class="ugto-1"
      d="M58.69,27.92a1.13,1.13,0,0,0,0,.61.66.66,0,0,0,.35.38.45.45,0,0,0,.29,0,.47.47,0,0,0,.24-.16.79.79,0,0,0,.15-.32.89.89,0,0,0,0-.36.69.69,0,0,0-.14-.3,1.67,1.67,0,0,0-.24-.25.81.81,0,0,1-.23-.27.35.35,0,0,1,0-.23.31.31,0,0,1,.14-.2.25.25,0,0,1,.25,0,.38.38,0,0,1,.21.2.75.75,0,0,1,0,.37l.18,0a1,1,0,0,0,0-.38.77.77,0,0,0-.12-.31.57.57,0,0,0-.24-.19.36.36,0,0,0-.39,0A.58.58,0,0,0,59,27a.72.72,0,0,0,0,.29.73.73,0,0,0,.08.25,1.17,1.17,0,0,0,.23.27,1.58,1.58,0,0,1,.24.25.36.36,0,0,1,.07.17.38.38,0,0,1,0,.18.36.36,0,0,1-.15.23.26.26,0,0,1-.27,0A.38.38,0,0,1,59,28.5a.49.49,0,0,1-.1-.22.83.83,0,0,1,0-.31Z"
    />
    <polygon
      class="ugto-1"
      points="58.35 28.25 57.52 27.91 57.69 27.15 58.44 27.46 58.49 27.2 57.75 26.89 57.9 26.21 58.7 26.54 58.76 26.28 57.78 25.87 57.28 28.1 58.29 28.52 58.35 28.25"
    />
    <path
      class="ugto-1"
      d="M30.4,56.1a1.18,1.18,0,0,0,.5.11A1.37,1.37,0,0,0,32,55.57c.14-.2.44-1.07.58-1.21a.6.6,0,0,1,.49-.16c.46,0,.46.75.28,1a.69.69,0,0,1-.19.19.72.72,0,0,1-.21.12h-.15v.08h.8v-.08h-.16A1.49,1.49,0,0,0,33.6,55c0-.17,0-.68-.07-.8a1,1,0,0,0-.34-.33,1,1,0,0,0-.53-.05c-.73.2-.66.69-1,1.18s-.39.69-1,.68a.51.51,0,0,1-.32-.18c-.29-.31-.05-1.59.21-1.63h.18v-.09h-.79v.09h.19a10.59,10.59,0,0,0-.26,1.19,1.9,1.9,0,0,0,.22.74A1.13,1.13,0,0,0,30.4,56.1Z"
    />
    <polygon
      class="ugto-1"
      points="29.92 56.34 29.92 57.51 30.02 57.51 30.02 57.2 33.5 57.2 33.5 57.51 33.6 57.51 33.6 56.34 33.5 56.34 33.5 56.64 30.02 56.64 30.02 56.34 29.92 56.34"
    />
    <path
      class="ugto-1"
      d="M30.42,50c-.06,0-.25,0-.25-.1V48.41h1.94v.82a.16.16,0,0,1-.16.19v.12h.52v-.11c-.2,0-.21,0-.22-.31l0-.71h1.27a5.9,5.9,0,0,1,0,1.19.42.42,0,0,1-.3.38v.11h.55V50h-.08V47.5h-.1v.17H30.09V47.5H30V50h-.1v.12h.53Z"
    />
    <path
      class="ugto-1"
      d="M56.23,26.66l.21.07a.37.37,0,0,1,.14.08,1.16,1.16,0,0,1,.08.16c0,.08.05.22.09.43l.09.53.23.08-.13-.7a2.66,2.66,0,0,0-.08-.33.5.5,0,0,0-.1-.17.42.42,0,0,0,.33-.1.75.75,0,0,0,.17-.38,1.1,1.1,0,0,0,0-.36.76.76,0,0,0-.11-.27.68.68,0,0,0-.27-.15l-.61-.21-.41,2.26.18.06Zm.19-1,.43.15a.34.34,0,0,1,.2.17.46.46,0,0,1,0,.29.52.52,0,0,1-.07.2.22.22,0,0,1-.13.09.29.29,0,0,1-.2,0l-.39-.13Z"
    />
    <path
      class="ugto-1"
      d="M30.21,53.07l.12,0h.34a2,2,0,0,0,.38,0,.49.49,0,0,0,.24-.15,1,1,0,0,0,.17-.39l0-.1.08.22c.12.3.42.44.87.44h.1A.92.92,0,0,0,33,52.9a1.09,1.09,0,0,0,.33-.27,1.07,1.07,0,0,0,.22-.37,1.36,1.36,0,0,0,.08-.44V50.59h-.1v.32H30v-.32h-.1v1.27H30v-.33h1.31v.55a.28.28,0,0,1-.06.2.37.37,0,0,1-.22.12l-.43,0a1.53,1.53,0,0,0-.46.08.41.41,0,0,0-.22.26.49.49,0,0,1,0,.12.69.69,0,0,0,.26.49l.11.09.07-.07-.11-.09-.07-.08a.24.24,0,0,1-.05-.1h0A.22.22,0,0,1,30.21,53.07Zm1.23-1.54H33.5v.11c0,.44-.32.67-1,.69a1.36,1.36,0,0,1-.89-.21.63.63,0,0,1-.22-.5Z"
    />
    <path
      class="ugto-1"
      d="M47.78,44.61a.91.91,0,0,0-.21,1.12c-.37.34-.49.57-.17,1,0,.11-.14.26-.2.35a1.73,1.73,0,0,0,0,.64c-.16.22,0,.34.22.42a.89.89,0,0,0,.65.39,1.1,1.1,0,0,0,1-.39h.89a1,1,0,0,0,1.65,0h.91c.24.58,1.38.5,1.65,0,.18-.13.18-.18.16-.41a1.7,1.7,0,0,0,0-.55c0-.11-.18-.37-.2-.43.2-.38,0-.64-.19-1,.26-.43,0-.79-.21-1.17a1.2,1.2,0,0,0-.26-1.17c.15-.47-.12-.79-.42-1.14a1.63,1.63,0,0,0-.78-1A1.79,1.79,0,0,0,51,40.41a2,2,0,0,0-1.54.59c-.09.11-.17.22-.25.34a1.53,1.53,0,0,0-.32.29,1,1,0,0,0-.23.73,1.39,1.39,0,0,0-.47,1,1,1,0,0,0-.47.93C47.78,44.56,47.78,44.56,47.78,44.61Zm2.51,3H47.44a.8.8,0,0,1,.24-.67h2.67A1.94,1.94,0,0,0,50.29,47.59Zm-2.13.77a.88.88,0,0,1-.54-.2H48.8A1.24,1.24,0,0,1,48.16,48.36Zm3.18-.17a1.83,1.83,0,0,1-.63.17.94.94,0,0,1-.53-.2h1.16Zm1.93.17a.87.87,0,0,1-.53-.2h1.15A1.12,1.12,0,0,1,53.27,48.36Zm.85-.43H47.35l0,0,6.81,0A.13.13,0,0,0,54.12,47.93Zm-.06-.34H51.52a2.12,2.12,0,0,0-.07-.67h2.42A1.24,1.24,0,0,1,54.06,47.59Zm-.18-1-6.21,0c-.23-.32-.21-.45.11-.69h5.9C53.84,46.16,54,46.32,53.88,46.6Zm-2-5.33-2.3,0A1.42,1.42,0,0,1,51.9,41.27Zm-2.55.3h2.77a1.56,1.56,0,0,1,.45.35l.15.29H48.94C48.94,41.91,49.1,41.77,49.35,41.57Zm-.48,1h4c.17.22.44.47.34.78l-4.73,0A1.06,1.06,0,0,1,48.87,42.52Zm-.47,1.09h4.81a.85.85,0,0,1,.26.87h-5.4C47.9,44.08,48,43.84,48.4,43.61Zm-.35,1.17h5.44c.19.3.37.51.18.84H47.84C47.72,45.27,47.72,45,48.05,44.78Z"
    />
    <path
      class="ugto-1"
      d="M38.36,65.57c-.68-.53-1.21-.54-1.6,0l.53.52c.13-.48.51-.62,1.46,0a1.48,1.48,0,0,0,1.77.35c-.08-.2-.17-.4-.26-.61C39.63,66.28,39,66,38.36,65.57Z"
    />
    <path
      class="ugto-1"
      d="M34.68,63l-.8-1-.08.06.19.23L31.3,64.55l-.19-.24-.08.07.8,1a1.09,1.09,0,0,0,.46.33,1.53,1.53,0,0,0,.61.09,2.1,2.1,0,0,0,.65-.14,2.19,2.19,0,0,0,.59-.35,2.1,2.1,0,0,0,.46-.52,2.15,2.15,0,0,0,.26-.63,1.59,1.59,0,0,0,0-.61A1.06,1.06,0,0,0,34.68,63Zm0,.6a1.66,1.66,0,0,1-.35.63,4.11,4.11,0,0,1-.59.59c-.17.14-.34.26-.5.37a3,3,0,0,1-.5.26,1,1,0,0,1-.47.06.56.56,0,0,1-.38-.23L31.65,65l2.7-2.21.24.3A.55.55,0,0,1,34.7,63.61Z"
    />
    <path
      class="ugto-1"
      d="M43.73,65.54a1.83,1.83,0,0,0-.46-.42,1,1,0,0,0-.52-.15H41.49v.1h.3v3.48h-.3v.1h1.26a1.06,1.06,0,0,0,.55-.15,1.41,1.41,0,0,0,.46-.42,1.93,1.93,0,0,0,.3-.59,2.25,2.25,0,0,0,.11-.68,2,2,0,0,0-.12-.68A2.16,2.16,0,0,0,43.73,65.54Zm-.19,1.92a2.86,2.86,0,0,1-.11.54,1.05,1.05,0,0,1-.25.41.6.6,0,0,1-.42.15h-.4V65.07h.38a.55.55,0,0,1,.48.27,1.53,1.53,0,0,1,.27.66,3.77,3.77,0,0,1,.08.83Q43.57,67.16,43.54,67.46Z"
    />
    <path
      class="ugto-1"
      d="M44.79,25.52a.37.37,0,0,1-.21-.06.39.39,0,0,1-.14-.17,1,1,0,0,1-.06-.3l-.18,0a1,1,0,0,0,.16.58.5.5,0,0,0,.42.21.44.44,0,0,0,.28-.08.54.54,0,0,0,.19-.25.87.87,0,0,0,.07-.37.86.86,0,0,0-.06-.34.59.59,0,0,0-.2-.24,1.38,1.38,0,0,0-.29-.13.82.82,0,0,1-.28-.16.34.34,0,0,1-.06-.22.37.37,0,0,1,.09-.25.3.3,0,0,1,.24-.09.28.28,0,0,1,.24.11.56.56,0,0,1,.1.33l.18,0a1.06,1.06,0,0,0-.07-.37.49.49,0,0,0-.18-.24.45.45,0,0,0-.28-.09.43.43,0,0,0-.36.18.77.77,0,0,0-.14.47.82.82,0,0,0,0,.28.58.58,0,0,0,.13.2.76.76,0,0,0,.29.16l.29.14a.45.45,0,0,1,.1.13.48.48,0,0,1,0,.18.46.46,0,0,1-.09.29A.33.33,0,0,1,44.79,25.52Z"
    />
    <path
      class="ugto-1"
      d="M47.28,68.75h.12V68h-.12v0a.39.39,0,0,1-.24.4,2,2,0,0,1-.61.1h-.5v-2h.37a.74.74,0,0,1,.36.07c.09,0,.14.07.14.2h.12V66h-.11v0c0,.14-.05.17-.15.21a1.16,1.16,0,0,1-.43.06h-.3V65.08h.35a1.85,1.85,0,0,1,.71.12.45.45,0,0,1,.3.47h.12v-.78h-.12V65H44.74v.1h.41v3.48h-.41v.1h2.54Z"
    />
    <path
      class="ugto-1"
      d="M29.92,59.15a1.08,1.08,0,0,0,.15.55,1.49,1.49,0,0,0,.42.45,2.2,2.2,0,0,0,.59.31,2.25,2.25,0,0,0,1.36,0,2.46,2.46,0,0,0,.6-.32,1.64,1.64,0,0,0,.42-.46,1,1,0,0,0,.15-.53V57.89h-.1v.3H30v-.3h-.1Zm.1-.4h3.49v.39a.56.56,0,0,1-.27.48,1.66,1.66,0,0,1-.66.27,4.49,4.49,0,0,1-.83.08q-.33,0-.63,0a2.36,2.36,0,0,1-.54-.12,1,1,0,0,1-.41-.25.59.59,0,0,1-.15-.41Z"
    />
    <path
      class="ugto-1"
      d="M55.05,27.34a.64.64,0,0,0,.3,0,.44.44,0,0,0,.21-.18,1,1,0,0,0,.12-.34.91.91,0,0,0,0-.37.46.46,0,0,0-.16-.26.39.39,0,0,0,.18-.16.67.67,0,0,0,.1-.26.73.73,0,0,0,0-.33.58.58,0,0,0-.11-.25.62.62,0,0,0-.24-.15l-.51-.16-.39,2.27Zm0-2.11.28.08a.9.9,0,0,1,.2.1.26.26,0,0,1,.07.14.41.41,0,0,1,0,.22.42.42,0,0,1-.07.19.18.18,0,0,1-.13.08l-.17,0-.29-.1Zm.16,1.05a.42.42,0,0,1,.2.11.34.34,0,0,1,.08.16.45.45,0,0,1,0,.23.48.48,0,0,1-.08.22.22.22,0,0,1-.14.09.37.37,0,0,1-.17,0L54.76,27l.13-.78Z"
    />
    <path
      class="ugto-1"
      d="M51.3,59.36l0,0a3.79,3.79,0,0,0-.25.5,2.64,2.64,0,0,0,0,.56.58.58,0,0,0-.08.23c.07.06.15,0,.19-.08a4,4,0,0,0,.5-.06,3.28,3.28,0,0,0,.52-.4v.38a1,1,0,0,0,.63.62c.3,0,.21-.34.18-.59,0,0,.07,0,.19.12s1,.19,1-.28a4.88,4.88,0,0,0-1.33-1.27l-.06-.26c.22-.07.42-.19.29-.45a.72.72,0,0,0,.34-.11v-.06c-.05,0-.05,0-.18.06l-.24,0-.15-.13a.65.65,0,0,1,0-.37s0,0-.07,0a.66.66,0,0,0-.09.31l-.11-.05c-.26,0-.33.23-.28.45a1.25,1.25,0,0,0-.19,0c-.29-.27-1.35-1.25-1.78-1a1,1,0,0,0,.3,1.1,1.06,1.06,0,0,0-.51.16.76.76,0,0,0,0,.15A.84.84,0,0,0,51.3,59.36Zm-.2-.07-.28,0-.28-.12v0a7.24,7.24,0,0,0,.79-.09c.17-.07.41-.34.61-.21C51.66,59,51.39,59.18,51.1,59.29Zm.16-.62a1.69,1.69,0,0,1-.55-.18l.58,0,.53.18Zm.35,1.74c-.21-.15-.5-.32-.36-.61a1.21,1.21,0,0,0,.63.48A.75.75,0,0,1,51.61,60.41Zm.42-.32c-.22-.12-.79-.42-.54-.72a1,1,0,0,0,.71.61A.25.25,0,0,1,52,60.09Zm.26-.33a1.6,1.6,0,0,1-.62-.56c0-.13.25-.08.33-.08a.84.84,0,0,0,.31.28,1.23,1.23,0,0,1,0,.36Zm.14.86h0a2.34,2.34,0,0,1,.17-1.19h0l.06.23C52.68,60,52.44,60.27,52.43,60.62Zm.37.35-.21-.14a1.34,1.34,0,0,1,.18-.88,3.45,3.45,0,0,1,.17.95C52.9,61,52.87,61,52.8,61Zm.7-.35a1.36,1.36,0,0,1-.18-.6,1.49,1.49,0,0,1,.65.56A2.15,2.15,0,0,1,53.5,60.62Zm.55-.27a.61.61,0,0,0,0,.11h0a2.68,2.68,0,0,0-.79-.63c0-.06-.4-.5-.37-.56A5.45,5.45,0,0,1,54.05,60.35Zm-.92-.47a4,4,0,0,1,.19.67h0a1.66,1.66,0,0,1-.48-1.12Zm-.37-1.61.21.18-.13.08c0,.06,0,.12,0,.18s-.39-.18-.35-.36C52.59,58.42,52.69,58.37,52.76,58.27Zm0,.65c0,.28,0,.37-.29.42-.33-.13-.38-.24-.4-.56C52.24,58.46,52.6,58.67,52.74,58.92Zm-2.22-1.23c.31-.18,1.29.71,1.5.88h0a3.69,3.69,0,0,1-.65-.23,3.15,3.15,0,0,0-.84-.62Zm.09.67a1.14,1.14,0,0,1-.13-.51,1.81,1.81,0,0,1,.69.49Zm.9.47-.38.15a3.9,3.9,0,0,0-.71.1C50.06,58.64,51.38,58.81,51.51,58.83Z"
    />
    <path
      class="ugto-1"
      d="M48.41,25.29l.58.05.13.72.21,0-.45-2.38h-.2L48,26l.19,0Zm.25-.91c0-.15.07-.29.1-.44,0,.12,0,.29.07.49l.12.66L48.47,25Z"
    />
    <path
      class="ugto-1"
      d="M37.31,46.74a.36.36,0,0,0,.18-.07c0-.14-.09-.18-.21-.1A.26.26,0,0,0,37.31,46.74Z"
    />
    <path
      class="ugto-1"
      d="M37.2,46.24a.26.26,0,0,0,.1-.39.42.42,0,0,0-.2,0C37,46.07,37,46.14,37.2,46.24Zm0-.24a.06.06,0,0,0,0,0l0,0A.15.15,0,0,1,37.2,46Z"
    />
    <path
      class="ugto-1"
      d="M50.63,66.25c.94-.62,1.33-.49,1.46,0l.53-.53c-.39-.51-.92-.51-1.6,0s-1.27.71-1.9.24l-.27.61A1.52,1.52,0,0,0,50.63,66.25Z"
    />
    <path
      class="ugto-1"
      d="M38.1,45.52c-.23-.11-.5,0-.32.27C37.94,45.77,38.19,45.76,38.1,45.52Zm-.2.08.06,0-.07,0S37.87,45.62,37.9,45.6Z"
    />
    <polygon
      class="ugto-1"
      points="46.94 24.75 47.67 24.81 47.63 25.9 47.81 25.92 47.9 23.59 47.72 23.58 47.68 24.53 46.95 24.48 46.98 23.53 46.8 23.51 46.71 25.84 46.9 25.85 46.94 24.75"
    />
    <path
      class="ugto-1"
      d="M37.65,46.35c.2,0,.5-.13.26-.38C37.69,46,37.31,46.18,37.65,46.35Zm.05-.2s0,0,.14,0v0s0,0-.15,0A.13.13,0,0,1,37.7,46.15Z"
    />
    <polygon
      class="ugto-1"
      points="30.02 43.6 33.5 43.6 33.5 43.91 33.6 43.91 33.6 42.74 33.5 42.74 33.5 43.04 30.02 43.04 30.02 42.74 29.92 42.74 29.92 43.91 30.02 43.91 30.02 43.6"
    />
    <path
      class="ugto-1"
      d="M49.8,25.12l.22,0a.3.3,0,0,1,.14.06.49.49,0,0,1,.09.15,2.9,2.9,0,0,1,.13.41l.14.51.24,0-.19-.67a1.52,1.52,0,0,0-.12-.32.48.48,0,0,0-.11-.15.4.4,0,0,0,.31-.16.66.66,0,0,0,.14-.4,1,1,0,0,0,0-.36.54.54,0,0,0-.14-.24.56.56,0,0,0-.28-.12l-.62-.1-.21,2.31.19,0Zm.09-1,.45.07a.27.27,0,0,1,.21.14.44.44,0,0,1,.05.29.52.52,0,0,1-.06.2.23.23,0,0,1-.12.12.4.4,0,0,1-.2,0l-.4-.07Z"
    />
    <path
      class="ugto-1"
      d="M51.25,25.68l.59.11.09.73.21,0-.33-2.41-.2,0-.78,2.2.2,0Zm.31-.88.12-.43c0,.13,0,.29,0,.5l.07.66-.47-.09Z"
    />
    <path
      class="ugto-1"
      d="M33.64,61.43l-3-.15a1.36,1.36,0,0,1-.43-.09.37.37,0,0,1-.24-.26v0l-.09,0,.31,1,.09,0v0a.29.29,0,0,1,0-.24c0-.07.07-.06.15-.09a.79.79,0,0,1,.23,0h.06l.47,1.35-.46.42-.11-.33-.08,0,.4,1.22.09,0-.1-.28,2.77-2.35Zm-2.37,1.31-.4-1.26,1.81.06Z"
    />
    <path
      class="ugto-1"
      d="M33.36,46.86a.46.46,0,0,1,.14.36v0h.1v-.95h-.1v0c0,.17-.08.26-.23.26a1.73,1.73,0,0,1-.32-.06L30.9,45.9l2.6-.81v.34h.1V44.18h-.1v.29l-3.58,1.12v.11l3,.95A1.91,1.91,0,0,1,33.36,46.86Z"
    />
    <path
      class="ugto-1"
      d="M36.94,47.92l1.16,0c1.1-.11,2.21-.08,3.31-.16a.21.21,0,0,0-.08-.39c-.18-.17-.2-.37-.46-.45a4,4,0,0,1,1.06-1.29c.24-.24.41-.46.15-.72-.24-.08-.32-.24-.45-.46a1.92,1.92,0,0,0-1,0c-.2-.5-.74.11-1,.31h-.05c-.36-.41-.91-.47-1.33-.76a.62.62,0,0,0-.81-.44,2.59,2.59,0,0,1-.38.27c0-.34-.35-.22-.59-.15-.22.37-.67.6-1,.91-.14.63.51.8.89,1.13.19.29,0,.38-.19.64a4.66,4.66,0,0,0-.58.91c-.25.18-.39.2-.39.51a2.46,2.46,0,0,0,1.18.16Zm-1.2-3.33a4.27,4.27,0,0,0,.91-.84.85.85,0,0,1,.23,0l-.18.11v.11c.09.08.37,0,.48,0l.4-.28c.3,0,.44,0,.52.33a3,3,0,0,0,1,.53.84.84,0,0,1,.27.22,7,7,0,0,0-.74.14.26.26,0,0,0-.5-.1,2,2,0,0,0,.07.24,3.82,3.82,0,0,0-.36.13,5.48,5.48,0,0,1-.64.33c-.09-.15-.51-.26-.67-.31C36.13,45.09,35.69,45.13,35.74,44.59Zm2.74.33s0,0-.07,0a.35.35,0,0,1-.12-.15l0,0h.12S38.48,44.85,38.48,44.92Zm-2.08.44s0,0,0,0a5,5,0,0,1,.64.25v0l-.32.29A.62.62,0,0,0,36.4,45.36Zm-.53,2.3-.38-.07c.13-.2.36-.22.42-.49.48-.69.48-.69.49-.68a4.33,4.33,0,0,0-.3,1.24Zm.58-.84a.2.2,0,0,0,.14-.08.48.48,0,0,1,0-.29c.14.09.26.21.4,0a.28.28,0,0,0-.22-.29,4.47,4.47,0,0,1,3-1.33,2.21,2.21,0,0,1,.69-.5c0,.19-.1.31.14.28.11-.22.7-.1.91-.07a1,1,0,0,0,.51.49c.11.22-.43.55-.55.65A5.79,5.79,0,0,0,40.58,47l0,.08c.37,0,.35.09.57.4l.07.05-.75,0,0-.11h0a3.37,3.37,0,0,0-2.32-.93c.06-.12,0-.16-.1-.16a.17.17,0,0,0-.06.1l.06.08a1.07,1.07,0,0,0-.76.56c0,.34.31-.11.34-.15a1.41,1.41,0,0,1,.9-.21,3.88,3.88,0,0,1,.57.13c-.22,0-.91-.08-.87.27l.14,0a2.33,2.33,0,0,1,1.72.19,6.16,6.16,0,0,0-2,.06.21.21,0,0,0,0,.14s0,0,.16,0a6,6,0,0,1,1.74,0c-1,0-2,.12-3,.16a3.1,3.1,0,0,1-.53-.1A3.12,3.12,0,0,1,36.45,46.82Zm.32-.44s0,0,0,0l.07.07-.06,0Zm1.29.07v0a.08.08,0,0,1,0,0h0a0,0,0,0,1,0,0Z"
    />
    <polygon
      class="ugto-1"
      points="54.55 24.79 54.36 24.74 54.01 27.02 54.19 27.07 54.55 24.79"
    />
    <path
      class="ugto-1"
      d="M33.5,37.45H30.76a.85.85,0,0,0-.46.12.69.69,0,0,0-.29.32,1,1,0,0,0-.1.45v.12a.78.78,0,0,0,.13.39.61.61,0,0,0,.31.22,1.74,1.74,0,0,0,.56.07H33l.25,0a.24.24,0,0,1,.13.09.42.42,0,0,1,.07.19v.05h.1v-.78h-.11v0a.38.38,0,0,1-.07.18.2.2,0,0,1-.13.08L33,39H30.81c-.48,0-.72-.19-.72-.56a.51.51,0,0,1,.17-.34.6.6,0,0,1,.38-.12H33.5v.3h.11V37.19H33.5Z"
    />
    <path
      class="ugto-1"
      d="M33.5,39.65a.2.2,0,0,1,0,.13l-.1.09-.14.09-.49.31H30.54a1.08,1.08,0,0,1-.34,0l0,0a.37.37,0,0,1-.14-.26v-.06h-.1v.48h0v.44H30v0a.52.52,0,0,1,.07-.22.26.26,0,0,1,.14-.11.78.78,0,0,1,.24,0h2.07l-2.37,1.52h-.26v.17H33a.9.9,0,0,1,.26,0,.18.18,0,0,1,.12.09.38.38,0,0,1,.07.22v.06h.1v-.93h-.1v.05a.42.42,0,0,1-.07.23.27.27,0,0,1-.12.09l-.25,0H31.47l2.13-1.3v-1h-.1Z"
    />
    <path
      class="ugto-1"
      d="M59.91,40.68h-.1v.18H56.29v-.15a2.08,2.08,0,0,1,.17-.85.36.36,0,0,1,.32-.14h0v-.09h-.72v3h.73v-.09h0c-.12,0-.11,0-.2-.07a.48.48,0,0,1-.21-.19,3,3,0,0,1-.08-.68v-.13h3.52v.19h.1v-1Z"
    />
    <path
      class="ugto-1"
      d="M66.72,32.22a9.15,9.15,0,0,0-1.22-1.55l-.81-.7c.31-.4.31-.4.49-.66a.78.78,0,0,0-.05-.73l-.35-.45a2.48,2.48,0,0,0-1.53-.66c-.29,0-1,.07-1.1.07.2-.3.52-.72.28-1.07a12,12,0,0,0-2-1.19,37.76,37.76,0,0,0-13.87-3.36l-2-.07a46.79,46.79,0,0,0-5.8.35l-1.72.28-1.89.42a30.43,30.43,0,0,0-6.44,2.52L27.67,26c-.24.33,0,.78.19,1.09H26.81a3.46,3.46,0,0,0-1.45.51l-.6.53c-.17.28.24.78.37,1a1.8,1.8,0,0,1,.2.51,8.65,8.65,0,0,0-1.85,2,8.7,8.7,0,0,0-.86,2c0,.25.05.31.31.28a4.25,4.25,0,0,1,1.89-.67c0,.1-.31.8-.58,1.6s-.51,1.67.25,2l.34,0q0,12.74,0,25.5c.11.68.11.68.24,1.34a11.85,11.85,0,0,0,1.6,3.57l.36.46a11.44,11.44,0,0,0,2.52,2.13,20.19,20.19,0,0,0,3.07,1.39l1.81.57a33.1,33.1,0,0,1,5.34,1.68c.24.29.5.56.76.82a2.89,2.89,0,0,0,3.4.22,5.9,5.9,0,0,0,.7-.57A3.14,3.14,0,0,0,47,75.23,5.08,5.08,0,0,0,48.08,75,3.58,3.58,0,0,0,49.51,74a2.82,2.82,0,0,1,.18-.29l.25-.12c2.24-.81,4.57-1.39,6.85-2.09l1.49-.57c.6-.26,1.18-.56,1.77-.85.3-.18.3-.18,1.2-.79a9.79,9.79,0,0,0,2.46-2.71A10.72,10.72,0,0,0,64.85,63c0-.26,0-.51.07-.76q0-12.4,0-24.8a.51.51,0,0,0,.59,0c.56-.86.28-2.08.07-3l-.26-.72c.5.22,1,.49,1.45.76.31.1.49.15.65-.16A5.29,5.29,0,0,0,66.72,32.22Zm-2.4-3.91c.17.18.5.43.5.69-.17.41-.54.69-.67,1.11-.3.63-.6,1.26-.86,1.91-.14.41-.29.81-.43,1.22-.92-.76-2.36-.86-3.47-1.06-.27-.07-1.23-.26-1.34-.61a9.78,9.78,0,0,0,1.66.47c.25-.11.26-.16.31-.43a34.43,34.43,0,0,1,1.74-3.56A3.25,3.25,0,0,1,64.32,28.31Zm-2,5.05s0,0,0,0a4.15,4.15,0,0,0-1.4-.18c0-.1.07-.19.11-.29A5,5,0,0,1,62.28,33.36Zm-.48,4.92a2.29,2.29,0,0,0,.78.39l.53,0q0,11.43,0,22.85c0,.28,0,.56-.07.85a10,10,0,0,1-1.43,3.77l-.44.6a7.07,7.07,0,0,1-2.41,1.85c-2.55,1-5.09,1.95-7.68,2.8-1.93.56-1.93.56-2,.57a1.79,1.79,0,0,0-.47-1.18c2.55-.69,5.09-1.38,7.58-2.24a16,16,0,0,0,3.53-1.76l.52-.48a6.4,6.4,0,0,0,1.42-2.67,10.43,10.43,0,0,0,.23-1.57C61.89,55.35,61.89,55.35,61.8,38.28Zm.42-.22c-.46-.45-.81-1.31-.34-1.86a1.29,1.29,0,0,1,1-.26c.24.15.53.28.58.59a2,2,0,0,1-.46.82c0,.24.14.32.35.23.34-.44.7-.9.42-1.46a2.17,2.17,0,0,0-.77-.6,1.77,1.77,0,0,0-1.39.33,1.46,1.46,0,0,0-.36,1.32c0,.11.07.22.1.33q.06,12.15.13,24.31A8.46,8.46,0,0,1,61,64.49a6.34,6.34,0,0,1-1.18,1.72,1.31,1.31,0,0,0-.25.22A16,16,0,0,1,56.4,68c-1.13.4-2.27.77-3.41,1.13l-4.8,1.31-.54-.16a2.55,2.55,0,0,0-1.16.12,2,2,0,0,0-.83.85,1.26,1.26,0,0,0,.53,1.7,1.62,1.62,0,0,0,1.44-.22,1,1,0,0,0,.1-.93c-.14-.24-.34-.31-.46,0,.08.31.21.53-.07.74-.53.13-.94.17-1.21-.36a1.35,1.35,0,0,1,0-.37,1.39,1.39,0,0,1,2.68-.16,3.78,3.78,0,0,1,0,.64,1.68,1.68,0,0,1-1.49,1.49l-.46,0a1.92,1.92,0,0,1-1.67-1.26,2.39,2.39,0,0,1,0-1.3c.52-1.18,1.55-1.25,2.7-1.51,2-.5,4-1.07,5.92-1.68a20.57,20.57,0,0,0,4.17-1.72A11.94,11.94,0,0,0,59,65.45a6.93,6.93,0,0,0,1.64-3.7c0-.2,0-.41.06-.61l0-25.22c0-.1.11-.2.17-.3A2.33,2.33,0,0,1,63.29,35a6,6,0,0,1,.69.47,1.88,1.88,0,0,1,.41,1.8A1.53,1.53,0,0,1,62.22,38.06ZM41.42,70.81a1.83,1.83,0,0,1,1.32-.12,1.23,1.23,0,0,1,.72,1.51.85.85,0,0,1-.87.33c-.57-.13-.52-.3-.38-.81a.22.22,0,0,0-.35-.15.85.85,0,0,0,.22,1.25c.74.25,1.45.22,1.81-.57a1.7,1.7,0,0,0-2.57-1.86l-.15,0a70.67,70.67,0,0,1-8.52-2.79A10.94,10.94,0,0,1,29.94,66a6.25,6.25,0,0,1-1.28-2.13c-.1-.4-.2-.82-.28-1.23l-.06-.76q0-12.12,0-24.24c.07-.14.14-.29.22-.43a1.55,1.55,0,0,0-.75-2,2,2,0,0,0-.72-.09H27a1.16,1.16,0,0,0-.9,1.38c.12.23.46.84.78.52.08-.3-.16-.32-.32-.53l-.06-.15c0-1.12,1.48-1,1.7,0a1.41,1.41,0,0,1-.33,1.09,1.54,1.54,0,0,1-2.1-.33,1.63,1.63,0,0,1,.64-2.31,2.62,2.62,0,0,1,1.77,0,1.92,1.92,0,0,1,.79.61,2.22,2.22,0,0,1,.2.48V60.32c0,.26,0,.26,0,1.2a6.16,6.16,0,0,0,1.8,4.1l.41.35a13.76,13.76,0,0,0,1.31.83c1.25.53,2.55,1,3.84,1.4,1.66.49,3.32,1,5,1.4.59.13,1.18.26,1.76.43a2.43,2.43,0,0,1,.92.7,2.1,2.1,0,0,1,0,2.21,2,2,0,0,1-1.32.76h-.53a1.77,1.77,0,0,1-1.51-1.28A1.45,1.45,0,0,1,41.42,70.81Zm-1,.76c0,.15,0,.31,0,.46h0c-2.35-.67-4.69-1.38-7-2.23-.92-.36-1.86-.72-2.76-1.12a9.2,9.2,0,0,1-.95-.63l-.81-.78-.67-.84a12.82,12.82,0,0,1-1.34-2.73,15,15,0,0,1-.36-2l0-23.59a2.35,2.35,0,0,0,1.36-.18q0,11.87,0,23.74a6.33,6.33,0,0,0,2.55,5.23c3.16,1.89,6.88,2.83,10.4,3.81A2.55,2.55,0,0,0,40.41,71.57ZM32.06,30.35a.54.54,0,0,1,.22,0l7,1.62c-.06.39-.06.39-.12,1h-.57l-9.07-.15a1.14,1.14,0,0,1-.08-.32,8.4,8.4,0,0,0,2.59-.81.69.69,0,0,0,.35-.63C32.39,31,32.2,30.65,32.06,30.35Zm12.08.42a.15.15,0,0,0,.24-.07,6.37,6.37,0,0,1,.67-3l.08,0c.45-.41.92-.9,1.49-.38,0,.13,0,.26,0,.4h-.12c0-.41-.42-.39-.65-.16a2.7,2.7,0,0,0,.4,2.63l.28.69A5,5,0,0,1,46.2,34H43.62l-.37-.76A5.19,5.19,0,0,1,43,31.87a6.23,6.23,0,0,1,.64-2.46c.15-.29.29-.57.44-.84s.39-1,.07-1.24-.52-.72-.81-.27c0,.05,0,.1,0,.16h0c-.18-.18.07-.38.22-.46.48,0,1.43.09,1.32.77a6.26,6.26,0,0,0-.7,2.55A2.71,2.71,0,0,0,44.14,30.77Zm6-.16a8.05,8.05,0,0,0-.51-.83s0-.05,0-.07l1.86-1.4h.1c.74.17,1.52.32,2.25.56C52.67,29.45,52.67,29.45,50.17,30.61ZM54.09,29l.11,0a26.8,26.8,0,0,1,3,1.25c-2.41.58-2.41.58-6.59,1.53a8.53,8.53,0,0,0-.32-.93v0Zm-2.86-.72-1.72,1.31c-.22-.25-.44-.49-.68-.72A2.56,2.56,0,0,1,49.6,28l1.63.25Zm-2.58.44c-.3-.22-.61-.45-.93-.64-.57-.25-.57-.25-.57-.27,1.19.07,1.19.07,2.13.15A3.44,3.44,0,0,1,48.65,28.71Zm1.6,2.6a7.09,7.09,0,0,1,.31,2.24,6.24,6.24,0,0,1-.8,2.55l-.39.54h-.49a6.25,6.25,0,0,0,1-1.91c0-.18.1-.37.14-.55A6.42,6.42,0,0,0,50,31.72,5.54,5.54,0,0,0,48,29a5.94,5.94,0,0,0-2.06-.9c0-.12,0-.53.24-.48l-.06.07a.75.75,0,0,0,0,.16.93.93,0,0,0,.57,0A5.53,5.53,0,0,1,50.25,31.31ZM43.69,62.12s0-.08,0-.13h2s0,0,0,.12Zm1.87.32v.42c-.08.48-.36,1.27-.9,1.42L44.33,64a2.38,2.38,0,0,1-.51-1.58Zm-2.13-.2a.34.34,0,0,1,0,.48,2.53,2.53,0,0,1-.69.4l-1.08-.62V61.22l1.09-.61h.05c.36.2.72.41,1.06.64a1.55,1.55,0,0,0-.12.42A.39.39,0,0,0,43.43,62.24Zm-9-2.13c0-.43,0-.86,0-1.3.35-.2.71-.41,1.07-.6h.08l1,.58v1.31c-.49.29-.49.29-1.11.61Zm1,1.47h0c-.32-.18-.84-.48-.91-.87l.94.53C35.41,61.35,35.41,61.46,35.42,61.58ZM42.15,37a4.91,4.91,0,0,1,.35,1.26,2.65,2.65,0,0,0,.37,1.81c0,.19,0,.26.05.45,0,.76-.21,1.67.36,2.3a1.43,1.43,0,0,0-.1,1.8.2.2,0,0,1,.08.13,1.19,1.19,0,0,0,.16,1.58c-.33.58-.51,1-.12,1.63.06,0,.28.2.25.28a1.86,1.86,0,0,0-.33.78H34.37V37Zm-4.56-.39,2.11-1.09s.59,1,.66,1.08ZM41,36.11l-.35-.57a5.15,5.15,0,0,1-.22-4.19c.09-.2.19-.39.28-.58a5.92,5.92,0,0,1,1.52-1.67,6.79,6.79,0,0,1,1.14-.58l.5-.15A11.35,11.35,0,0,0,42.76,31c0,.18,0,.37-.08.56a5,5,0,0,0,.68,2.59c0,.26-.76.57-1,.66-.43,0-.85.1-.61.61.16.12.39.15.47.38-.38,0-.82-.11-1,.26,0,.4.19.42.55.47l.11.13H41.3l0,0Zm6-5c0-.18-.1-.35-.14-.53-.3-.79-.84-1.4-.8-2.29a7,7,0,0,1,1.76.73c.16.12.32.23.47.36a5.64,5.64,0,0,1,1.65,2.67c0,.21.07.43.1.64a5.33,5.33,0,0,1-1.29,3.87v0H48l.11-.13c.41-.07.6-.24.4-.64a2.24,2.24,0,0,0-1-.12c.25-.29.81-.32.5-.84l-.19-.1h-.48c-.21-.11-1-.46-.91-.75a7.75,7.75,0,0,0,.28-.79A5.67,5.67,0,0,0,46.91,31.14ZM45.47,61.65l-.15,0S45.43,61.59,45.47,61.65Zm-.16-.31a4.86,4.86,0,0,0-.74.32H44a1.63,1.63,0,0,1,.2-.49l.38-.23c.71-.28.71-.28.74-.27C45.38,60.85,45.44,61.21,45.31,61.34Zm0-1.05c-.33.24-.75.32-1.1.54a.84.84,0,0,1,0-.84,5,5,0,0,1,1.17-.61h.06A1.2,1.2,0,0,1,45.36,60.29Zm0-1.33c-.2.29-.57.34-.88.47l-.33.19c-.15-.25-.37-.8-.15-1.08l.46-.23a2.47,2.47,0,0,0,1-.42A.89.89,0,0,1,45.41,59Zm-1.73-7.42s-.08.13-.24.42a.86.86,0,0,0,.21,1s0,0-.92.53l-1.09-.63V51.57L42.73,51A3.15,3.15,0,0,1,43.68,51.54Zm-.58-2.09h.18a2.16,2.16,0,0,0,.29.45,1.12,1.12,0,0,1-.2.43c-.07.31-.07.31-.1.33l-.16-.14C43.1,50.17,43.1,49.81,43.1,49.45Zm.46,6,0,0-.4-.23V54l.38-.22a1.93,1.93,0,0,0,.15.44c.16.26.13.22-.06.48A1.05,1.05,0,0,0,43.56,55.45Zm-1.18-4.91c-1,.58-1,.58-1.12.61l-1.06-.62,0-1.08H42.4C42.39,49.81,42.38,50.17,42.38,50.54ZM41,51.59c0,.43,0,.86,0,1.3l-1.12.62-1.08-.62v-1.3L39.91,51ZM39.5,50.54a12.63,12.63,0,0,1-1.11.61l-1.07-.62c0-.36,0-.72,0-1.08h2.22Zm-1.38,1.05c0,.43,0,.86,0,1.3-.38.2-.75.41-1.12.62l-1.08-.62v-1.3L37,51Zm-1.49-1.05c-1.05.59-1.05.59-1.11.61l-1.06-.62,0-1.08h2.23Zm0,3.4v1.31c-.36.2-.74.42-1.11.6l-1.06-.61c0-.43,0-.86,0-1.29.35-.21.71-.41,1.07-.61A9.12,9.12,0,0,1,36.63,53.94Zm-.79,2.45,1.06-.6.1,0,1.06.62v1.27L37,58.28h-.07a8.15,8.15,0,0,0-1.08-.63Zm1.48-1.15c0-.43,0-.87,0-1.3l1.05-.6h.07l1,.6v1.31l-1,.59h-.06Zm1.39,1.15,1.09-.62h.07l1.07.62v1.27l-1.13.63-1.1-.63Zm1.48-1.16V54c.17-.1,1-.65,1.13-.61l1.06.6v1.31c-.37.2-.74.43-1.12.6Zm1.4,1.16,1.13-.64c.51.29.51.29.83.49a1.84,1.84,0,0,0,.27,1.08c-.06.16-.12.37-.15.43a7.29,7.29,0,0,1-1,.54l-1.09-.63Zm1.48,2.39a2.86,2.86,0,0,1,.62-.33c0,.17,0,.26,0,.6s.25.54.3.8a1.42,1.42,0,0,0-.16.61h0l-.71-.39Zm1.9-.89a2.84,2.84,0,0,0-1,.38,1.23,1.23,0,0,1,.13-1l.55-.3a5.61,5.61,0,0,0,.88-.36l0,0A.94.94,0,0,1,45,57.89Zm.54-1.65a.71.71,0,0,0-.08.15,11.31,11.31,0,0,0-1.31.64H44a1.06,1.06,0,0,1,0-1c.25-.13.47-.28.73-.43l.63-.21c.28-.16.32-.21.36-.21A1.07,1.07,0,0,1,45.51,56.24Zm0-1.36c-.47.33-1,.41-1.5.78a.86.86,0,0,1-.19-.77l.25-.36c.55-.28.55-.28,1.58-.77C46,54.14,45.71,54.51,45.51,54.88Zm.06-1.42L44,54.21a1,1,0,0,1,0-1.18,3,3,0,0,1,.46-.3,7.5,7.5,0,0,0,.84-.36c.4-.29.4-.29.44-.3A1.58,1.58,0,0,1,45.57,53.46Zm.18-1.75a5.31,5.31,0,0,1-.68.49l-.58.21c-.26.14-.58.37-.62.38s-.11-.15-.17-.21c-.35-.82.89-1.35,1.45-1.54a2.68,2.68,0,0,0,.69-.41h0A1.31,1.31,0,0,1,45.75,51.71Zm.08-1.41-.63.42a6.28,6.28,0,0,0-1.31.62.88.88,0,0,1,0-1.3,3.72,3.72,0,0,1,1.19-.52l.31-.14c.47-.3.47-.3.48-.29A1.59,1.59,0,0,1,45.83,50.3Zm0-1.58a3.51,3.51,0,0,1-1.25.63l-.51.22-.31.18a.93.93,0,0,1-.08-1.22,3.14,3.14,0,0,1,1.51-.7,6.15,6.15,0,0,0,.75-.39c0,.14.07.28.1.42A1.71,1.71,0,0,1,45.87,48.72Zm.07-1.63a3.75,3.75,0,0,1-1.3.6c-.28.1-.56.29-.84.37-.61-.53-.51-.94-.09-1.57a7.78,7.78,0,0,1,1.75-.69c.16-.09.4-.3.58-.3A1.54,1.54,0,0,1,45.94,47.09Zm.18-2.1a3.71,3.71,0,0,1-1.85.88,4.18,4.18,0,0,1-.65.3.89.89,0,0,1-.11-1.23,10,10,0,0,1,2-.86,2.09,2.09,0,0,1,.7-.31A1.11,1.11,0,0,1,46.12,45Zm0-1.54-.91.44a13.69,13.69,0,0,0-1.74.69l-.24-.31a1.32,1.32,0,0,1,.36-1.35c.88-.41,1.82-.69,2.68-1.12h.06a1.41,1.41,0,0,1,0,1.28Zm.28-2-.84.42-1.53.56a4.31,4.31,0,0,1-.58.26,2.86,2.86,0,0,1-.26-2H46.6A1.2,1.2,0,0,1,46.43,41.42Zm-3.29-1a.17.17,0,0,1,0-.07h3.52l0,0v0Zm0-.37a1.36,1.36,0,0,1-.4-.9,3.79,3.79,0,0,0-.65-2.57v0h5.63s0,0-.2.24a5.55,5.55,0,0,0-.42,1.14A11,11,0,0,1,47,39.61a3.53,3.53,0,0,1-.22.39Zm-1.65-3.79c0-.06,0,0,0-.12l.06,0h6.75s0,0,0,.11l0,0Zm5.86-.68c-.06.07-.1.14-.15.21q-2.34,0-4.68,0l-.13-.24ZM42,35.25l0,0v-.1s5.82,0,5.88,0,0,0,0,.08l0,0Zm4.78-.45H43.05a4.23,4.23,0,0,0,.51-.44h2.73A4.18,4.18,0,0,0,46.81,34.8ZM34.38,51.06l.88.5c0,.43,0,.85,0,1.28l-.9.53C34.37,52.6,34.37,51.82,34.38,51.06Zm0,4.77c.3.16.6.34.89.51v1.28l-.9.53C34.37,57.37,34.37,56.6,34.38,55.83Zm1.54,5.43L37,60.64a6.79,6.79,0,0,1,1.12.62c0,.27,0,.55,0,.83H38a10.74,10.74,0,0,1-2-.33Zm1.4-1.15c0-.44,0-.88,0-1.31l1.05-.59h.09l1,.58v1.31a9.33,9.33,0,0,1-1.11.61Zm1.47,1.08a9.26,9.26,0,0,1,1.12-.62l1.07.62v1.28l-.1,0c-.5-.13-1-.25-1.49-.36h-.61C38.78,61.81,38.78,61.5,38.79,61.19Zm1.41-1.08c0-.43,0-.86,0-1.29.35-.21.71-.41,1.07-.61h.08c.34.2.69.39,1,.58v1.31l-1.06.6h-.06Zm5.66,2.23c.22-.32,0-.66-.21-.92l0-.54c0-.21-.07-.29-.09-.42a1.43,1.43,0,0,0,.21-.84c-.07-.34-.11-.41-.12-.52a1.28,1.28,0,0,0,.17-1.24c-.1-.19-.1-.19-.1-.23a1,1,0,0,0,.06-1.17.34.34,0,0,1,0-.09,1.47,1.47,0,0,0,.07-1.45v-.08c.23-.49.33-.8,0-1.26v0A2,2,0,0,0,46.1,52c-.09-.14-.09-.14-.09-.18a1.84,1.84,0,0,0,.23-1,4.13,4.13,0,0,1-.13-.49,3.11,3.11,0,0,0,.16-.91h9.08c0,3.39,0,6.8,0,10.2a1.84,1.84,0,0,1-.51,1.79,5.77,5.77,0,0,1-2.79.62l-1.73,0a18,18,0,0,0-4.69,1.57A4.15,4.15,0,0,0,45.86,62.34Zm9.49-13.28H46.16l-.06-.14a2,2,0,0,0,.1-1.71,2.06,2.06,0,0,0,.25-1.53,1.05,1.05,0,0,1-.19-.4,1.75,1.75,0,0,0,.4-1.07,2.68,2.68,0,0,0-.21-.6v-.09a1.78,1.78,0,0,0,.35-1.35c-.19-.49-.19-.49-.19-.54.37-.35.17-.83.4-1.24,0-.08,0-.16,0-.23a1.9,1.9,0,0,0,.38-1.06,4,4,0,0,1,.37-2.05h7.6ZM49.63,36.65c.21-.34.42-.7.61-1h0l2,1Zm-5.88-9.38h-.09l-.07,0s0-.08,0-.11A.27.27,0,0,1,43.75,27.27Zm-.13.51H44c0,.11,0,.23-.05.35a6.28,6.28,0,0,0-2.2,1.08,7.55,7.55,0,0,0-1.25,1.5c-.1.21-.2.42-.29.63a6,6,0,0,0-.27,2.79,7.54,7.54,0,0,0,.58,1.61q.3.46.63.9h-.49c-.16-.23-.32-.47-.47-.71a7.24,7.24,0,0,1-.7-2.12c0-.16,0-.31,0-.46a6.05,6.05,0,0,1,1.41-3.88c.38-.38.38-.38.78-.73A6.73,6.73,0,0,1,43.62,27.78Zm-1.89.64a2.85,2.85,0,0,1-.45.32L40.65,28q1.1-.11,2.19-.18A10.74,10.74,0,0,0,41.73,28.42Zm-.6.48-.35.33a2.51,2.51,0,0,1-.34.39l-1.73-1.34c.57-.11,1.14-.18,1.72-.25C40.54,28.17,41.13,28.75,41.13,28.9Zm-.8.88a8.54,8.54,0,0,0-.5.82l0,0-3.71-1.74,0,0c.79-.2,1.58-.38,2.39-.52Zm-.61,1-.33.94-.07,0-6.88-1.6A25.48,25.48,0,0,1,35.63,29h.12C39.33,30.64,39.33,30.64,39.72,30.81Zm-10,2.48a2.17,2.17,0,0,1,0-.25l9.55.13c0,.33.1.69.08,1l-9.69,2V36c-.07-1-.88-1.53-1.8-1.76.26-.07.26-.07,1.26-.26A1.21,1.21,0,0,0,29.7,33.29ZM43.09,69.52c-2.13-.48-4.25-1-6.33-1.68-1.66-.56-1.66-.56-3.22-1.12a7.14,7.14,0,0,1-2.82-2,6.26,6.26,0,0,1-.95-1.94,11.32,11.32,0,0,1-.21-1.74c0-.3,0-.61,0-.91h0q0-9.64,0-19.29h0V36.34c8.34-1.68,8.34-1.68,9.76-2a7.71,7.71,0,0,0,.27,1l-2.48,1.28-3,0a.28.28,0,0,0-.15.15l0,1.4,0,.3h0v0h0c0,21.2,0,21.2,0,21.7,0,.13,0,.27.07.41A2.23,2.23,0,0,0,35.47,62c.24.07.47.13.7.21a30.2,30.2,0,0,0,3.15.28,20.91,20.91,0,0,1,2.58.7,11.83,11.83,0,0,1,2.74,1.52c.16,0,.19,0,.3-.16l.41-.29a15.42,15.42,0,0,1,3.94-1.56l1.1-.25A12.68,12.68,0,0,0,54.6,62a2.37,2.37,0,0,0,.87-.66,2.52,2.52,0,0,0,.28-1.6q0-10.58,0-21.13h0v-.11h0v-.33h0c0-.45,0-.9,0-1.35a.31.31,0,0,0-.15-.15H52.69l-2.33-1.24a1.51,1.51,0,0,1,.13-.46c0-.19.1-.37.16-.56l9.54,1.92,0,4.32h0V41q0,9.91,0,19.84a9,9,0,0,1-.52,2.71c-.1.19-.19.39-.29.59a6.77,6.77,0,0,1-2.24,2.18,40.58,40.58,0,0,1-6.38,2.25c-2.07.56-2.07.56-3.2.84a4.5,4.5,0,0,0-2.52,1.06c-.17.22-.29.44-.32.45A2.66,2.66,0,0,0,43.09,69.52ZM60.22,36.11h0L50.7,34.2a9.47,9.47,0,0,0,.08-1c7.32-.1,7.32-.1,9.73-.11-.22.46-.38.59-.1,1l.11.09c.14.05.84.19,1.42.33C61.15,34.74,60.29,35.19,60.22,36.11ZM50.77,33a8.38,8.38,0,0,0-.11-1c6.69-1.55,6.69-1.55,6.83-1.57a3.39,3.39,0,0,1,.56.34c-.25.32-.57.56-.45,1,.61.87,2,1,2.95,1.12Zm7.44-1.8c0-.09.1-.18.15-.24a2.88,2.88,0,0,1,.75.5h0A6.73,6.73,0,0,0,58.21,31.18ZM29.06,25.73a31.69,31.69,0,0,1,5.58-2.23,37.5,37.5,0,0,1,8.63-1.21H44.9l1.07,0c5.48.38,11.41,1.34,16.09,4.42A.48.48,0,0,1,62,27a24.28,24.28,0,0,0-2.25,4.32l0,0a20.45,20.45,0,0,0-9.87-3.76c-.92-.09-1.85-.17-2.78-.22A1.08,1.08,0,0,0,47,27a1.3,1.3,0,0,0-1-.45,2.15,2.15,0,0,0-.79.42h0c-.55-.72-2.37-1.09-2.37.23a1.21,1.21,0,0,1,0,.18,31.37,31.37,0,0,0-9.43,1.88,19.79,19.79,0,0,0-3.06,1.6h0c-1.42-2.8-1.58-3.08-1.86-3.67a1.92,1.92,0,0,1-.4-.87Zm2.81,5.09a3.79,3.79,0,0,1-1.18.33c.16-.1.89-.65,1-.6Zm-6.73-2.49h.09a2.76,2.76,0,0,1,2.05-.78,7.71,7.71,0,0,1,.91.05l1.7,3.34c.24.6.25.65.88.65l1.08-.25a9.38,9.38,0,0,1-2.56.78c-1.3.21-1.3.21-1.63.24a2.16,2.16,0,0,0-.58.31l-1.22-2.82,0-.22C25.69,29.36,25.55,29.06,25.14,28.33Zm4.05,4.53c-.6,0-1.19.1-1.79.12a1.31,1.31,0,0,1,.27-.19c.81-.1.81-.1,1.33-.19h.12C29.14,32.69,29.17,32.77,29.19,32.86ZM25,35.7c-.28.73-.28.73-.28.8h0c-.6-.34.12-1.94.28-2.38s.28-.71.43-1.06c-.1-.61-1.88,0-2.17.21a.07.07,0,0,1,0-.05,7.72,7.72,0,0,1,1.09-2,9.22,9.22,0,0,1,1.25-1.17s0,0,1.31,3c0,.22.07.26.27.35.69,0,1.39-.14,2.08-.12v0l-.22.18-1.44.31a5.88,5.88,0,0,0-1.67.76l-.39.37A6.39,6.39,0,0,0,25,35.7ZM64.34,63.49A8.94,8.94,0,0,1,62,68.06a15.53,15.53,0,0,1-1.75,1.37c-.36.19-.71.39-1.06.59L58,70.58l-1.53.56c-2.32.76-4.73,1.27-7,2.17a2.8,2.8,0,0,1-1.63,1.37,5.23,5.23,0,0,1-1,.11,3.25,3.25,0,0,1-1.32-.49,3.91,3.91,0,0,1-.8-1,6,6,0,0,1-.89.86l-.54.3-.48.14a2.89,2.89,0,0,1-2.72-1.38,13.63,13.63,0,0,0-2.69-1l-2.08-.55a18.53,18.53,0,0,1-6.66-2.93L27.84,68a10,10,0,0,1-2.38-4.58c-.06-.33-.12-.66-.17-1V37.14a2.27,2.27,0,0,0,.76.78l0,23.53c0,.3,0,.6.07.91A11.17,11.17,0,0,0,28,67a10.86,10.86,0,0,0,2,1.88l.58.31c2,.82,4,1.56,6.1,2.24,1.87.56,3.64,1,3.7,1.09a2.08,2.08,0,0,0,.88,1.27,2.63,2.63,0,0,0,2.68,0l.41-.35.32-.46a2.33,2.33,0,0,0,1.57,1.26,2.49,2.49,0,0,0,2.3-.65,2.69,2.69,0,0,0,.51-1.08c2.28-.65,4.52-1.42,6.75-2.24,1.18-.47,2.4-.9,3.57-1.41.48-.29.48-.29.84-.53s.43-.36.82-.73a9.53,9.53,0,0,0,1.79-2.74,15.43,15.43,0,0,0,.56-1.87c.07-.44.07-.44.14-1.14q0-11.59,0-23.19a2.59,2.59,0,0,0,.92-.64q0,12.2,0,24.38C64.41,63,64.41,63,64.34,63.49Zm2.59-29.4c-.3-.17-1.82-1.21-2.17-.7a1,1,0,0,0,0,.18l.27.51A6,6,0,0,1,65.34,37c-.07.18-.07.18-.09.19a3.36,3.36,0,0,0-1.49-2.4A10.87,10.87,0,0,0,61.91,34l-1.16-.24c-.28-.19.45-.16.48-.16a6.3,6.3,0,0,1,.86.14,2.77,2.77,0,0,0,.84.16l.18-.11a2,2,0,0,0,.11-.43,18.35,18.35,0,0,1,1.22-3h0c.43.36.43.36.94.82A6.78,6.78,0,0,1,67,34.09Z"
    />
    <path
      class="ugto-1"
      d="M56.16,38.71a.67.67,0,0,0,.12.31,1,1,0,0,0,.38.33,4.28,4.28,0,0,0,.9.1h.56a3,3,0,0,0,.91-.05,1.75,1.75,0,0,0,.72-.37,1.39,1.39,0,0,0,0-1.34,1.2,1.2,0,0,0-.7-.26,8.59,8.59,0,0,0-1-.09,7.14,7.14,0,0,0-1.34.15,1.31,1.31,0,0,0-.39.34,1.11,1.11,0,0,0-.13.57,1.35,1.35,0,0,0,0,.3Zm.57-.66a1.76,1.76,0,0,1,.6-.15c.23,0,.48,0,.74,0s.56,0,.79,0a1.59,1.59,0,0,1,.57.15.39.39,0,0,1,.25.36.34.34,0,0,1-.15.3,1,1,0,0,1-.38.17,2.63,2.63,0,0,1-.49.06l-.59,0-.59,0a2.63,2.63,0,0,1-.49-.06.81.81,0,0,1-.25-.09h-.05l-.08-.06a.34.34,0,0,1-.15-.3A.39.39,0,0,1,56.73,38.05Z"
    />
  </g>
</g>
</svg>